<svg xmlns="http://www.w3.org/2000/svg"  viewBox="0 0 48 48" width="240px" height="240px"><linearGradient id="AMqdbwFXbt1rRZunQ5Enta" x1="27.068" x2="23.068" y1="7.254" y2="29.087" gradientUnits="userSpaceOnUse"><stop offset="0" stop-color="#80e81f"/><stop offset=".339" stop-color="#67d326"/><stop offset="1" stop-color="#088242"/></linearGradient><path fill="url(#AMqdbwFXbt1rRZunQ5Enta)" d="M30,42H18c-6.627,0-12-5.373-12-12V18c0-6.627,5.373-12,12-12h24v24 C42,36.627,36.627,42,30,42z"/><rect width="36" height="6" x="6" y="26" opacity=".05"/><rect width="36" height="6" x="6" y="27" opacity=".07"/><linearGradient id="AMqdbwFXbt1rRZunQ5Entb" x1="23.524" x2="24.024" y1="41.334" y2="28.501" gradientUnits="userSpaceOnUse"><stop offset="0" stop-color="#80e81f"/><stop offset=".258" stop-color="#71df21"/><stop offset="1" stop-color="#05a333"/></linearGradient><path fill="url(#AMqdbwFXbt1rRZunQ5Entb)" d="M30,42H18c-6.627,0-12-5.373-12-12v-2h36v2C42,36.627,36.627,42,30,42z"/><path d="M34.464,30.528L34.464,30.528l-0.347-1.965L17.95,12.396c-0.756-0.756-2.074-0.756-2.828,0	l-3.536,3.535C11.208,16.309,11,16.812,11,17.347c0,0.534,0.208,1.036,0.586,1.412l16.171,16.172l7.709,1.289L34.464,30.528z" opacity=".05"/><path d="M33.652,28.806L17.596,12.749c-0.567-0.566-1.556-0.566-2.121,0l-3.536,3.535	c-0.284,0.283-0.439,0.661-0.439,1.062c0,0.401,0.156,0.777,0.439,1.06l16.058,16.059l2.775,0.465l0-0.001l4.078,0.682	L33.652,28.806z" opacity=".07"/><linearGradient id="AMqdbwFXbt1rRZunQ5Entc" x1="26.625" x2="21.625" y1="22.458" y2="27.458" gradientUnits="userSpaceOnUse"><stop offset=".305" stop-color="#f5fcff"/><stop offset=".704" stop-color="#d3e6d3"/><stop offset=".865" stop-color="#a4cba5"/></linearGradient><path fill="url(#AMqdbwFXbt1rRZunQ5Entc)" d="M33.812,32.595L34.236,35l-2.423-0.405L33.812,32.595z M12.293,18.052l15.945,15.945	l2.363,0.395l3-3l-0.413-2.345L17.243,13.102c-0.391-0.391-1.024-0.391-1.414,0l-3.536,3.536	C11.902,17.028,11.902,17.662,12.293,18.052z"/></svg>